<mxfile host="65bd71144e">
    <diagram id="Rqr_Dvhj0riQ0_PxHZDN" name="CasosDeUso">
        <mxGraphModel dx="1561" dy="883" grid="1" gridSize="10" guides="1" tooltips="1" connect="1" arrows="1" fold="1" page="1" pageScale="1" pageWidth="1100" pageHeight="850" math="0" shadow="0">
            <root>
                <mxCell id="0"/>
                <mxCell id="1" parent="0"/>
                <mxCell id="88" style="edgeStyle=none;html=1;dashed=1;startArrow=none;startFill=0;endArrow=open;endFill=0;sourcePerimeterSpacing=0;" edge="1" parent="1" source="4" target="22">
                    <mxGeometry relative="1" as="geometry"/>
                </mxCell>
                <mxCell id="4" value="UC00: Registrar cuenta de usuario" style="rounded=1;whiteSpace=wrap;html=1;" parent="1" vertex="1">
                    <mxGeometry x="170" y="350" width="120" height="60" as="geometry"/>
                </mxCell>
                <mxCell id="8" style="edgeStyle=none;html=1;endArrow=none;endFill=0;" parent="1" source="5" target="4" edge="1">
                    <mxGeometry relative="1" as="geometry"/>
                </mxCell>
                <mxCell id="11" style="edgeStyle=none;html=1;endArrow=none;endFill=0;" parent="1" source="5" target="9" edge="1">
                    <mxGeometry relative="1" as="geometry"/>
                </mxCell>
                <mxCell id="17" style="edgeStyle=none;html=1;endArrow=none;endFill=0;" parent="1" source="5" target="12" edge="1">
                    <mxGeometry relative="1" as="geometry"/>
                </mxCell>
                <mxCell id="64" style="edgeStyle=none;html=1;endArrow=none;endFill=0;sourcePerimeterSpacing=30;startArrow=block;startFill=0;" edge="1" parent="1" source="5" target="6">
                    <mxGeometry relative="1" as="geometry"/>
                </mxCell>
                <mxCell id="5" value="Usuario" style="shape=umlActor;verticalLabelPosition=bottom;verticalAlign=top;html=1;outlineConnect=0;" parent="1" vertex="1">
                    <mxGeometry x="40" y="250" width="30" height="60" as="geometry"/>
                </mxCell>
                <mxCell id="35" style="edgeStyle=none;html=1;endArrow=none;endFill=0;" parent="1" source="6" target="31" edge="1">
                    <mxGeometry relative="1" as="geometry"/>
                </mxCell>
                <mxCell id="45" style="edgeStyle=none;html=1;endArrow=none;endFill=0;" edge="1" parent="1" source="6" target="43">
                    <mxGeometry relative="1" as="geometry"/>
                </mxCell>
                <mxCell id="63" style="edgeStyle=none;html=1;endArrow=none;endFill=0;sourcePerimeterSpacing=30;startArrow=block;startFill=0;" edge="1" parent="1" source="5" target="7">
                    <mxGeometry relative="1" as="geometry">
                        <mxPoint x="55" y="560" as="sourcePoint"/>
                        <Array as="points">
                            <mxPoint x="10" y="470"/>
                            <mxPoint x="10" y="630"/>
                        </Array>
                    </mxGeometry>
                </mxCell>
                <mxCell id="95" style="edgeStyle=none;html=1;startArrow=none;startFill=0;endArrow=none;endFill=0;sourcePerimeterSpacing=0;" edge="1" parent="1" source="6" target="39">
                    <mxGeometry relative="1" as="geometry"/>
                </mxCell>
                <mxCell id="6" value="Corporativo" style="shape=umlActor;verticalLabelPosition=bottom;verticalAlign=top;html=1;outlineConnect=0;" parent="1" vertex="1">
                    <mxGeometry x="40" y="460" width="30" height="60" as="geometry"/>
                </mxCell>
                <mxCell id="51" style="edgeStyle=none;html=1;endArrow=none;endFill=0;" edge="1" parent="1" source="7" target="37">
                    <mxGeometry relative="1" as="geometry"/>
                </mxCell>
                <mxCell id="7" value="Natural" style="shape=umlActor;verticalLabelPosition=bottom;verticalAlign=top;html=1;outlineConnect=0;" parent="1" vertex="1">
                    <mxGeometry x="40" y="710" width="30" height="60" as="geometry"/>
                </mxCell>
                <mxCell id="87" style="edgeStyle=none;html=1;dashed=1;startArrow=none;startFill=0;endArrow=open;endFill=0;sourcePerimeterSpacing=0;" edge="1" parent="1" source="9" target="15">
                    <mxGeometry relative="1" as="geometry"/>
                </mxCell>
                <mxCell id="9" value="UC0: Iniciar sesión" style="rounded=1;whiteSpace=wrap;html=1;" parent="1" vertex="1">
                    <mxGeometry x="170" y="150" width="120" height="60" as="geometry"/>
                </mxCell>
                <mxCell id="12" value="UC00: Ver publicaciones del blog" style="rounded=1;whiteSpace=wrap;html=1;" parent="1" vertex="1">
                    <mxGeometry x="170" y="250" width="120" height="60" as="geometry"/>
                </mxCell>
                <mxCell id="85" style="edgeStyle=none;html=1;dashed=1;startArrow=none;startFill=0;endArrow=open;endFill=0;sourcePerimeterSpacing=0;" edge="1" parent="1" source="13" target="12">
                    <mxGeometry relative="1" as="geometry"/>
                </mxCell>
                <mxCell id="13" value="UC00: Ver publicación específica" style="rounded=1;whiteSpace=wrap;html=1;" parent="1" vertex="1">
                    <mxGeometry x="370" y="250" width="120" height="60" as="geometry"/>
                </mxCell>
                <mxCell id="86" style="edgeStyle=none;html=1;dashed=1;startArrow=none;startFill=0;endArrow=open;endFill=0;sourcePerimeterSpacing=0;" edge="1" parent="1" source="15" target="13">
                    <mxGeometry relative="1" as="geometry"/>
                </mxCell>
                <mxCell id="15" value="UC00: Comentar publicación" style="rounded=1;whiteSpace=wrap;html=1;" parent="1" vertex="1">
                    <mxGeometry x="570" y="250" width="120" height="60" as="geometry"/>
                </mxCell>
                <mxCell id="83" style="edgeStyle=none;html=1;dashed=1;startArrow=none;startFill=0;endArrow=open;endFill=0;sourcePerimeterSpacing=0;" edge="1" parent="1" source="19" target="9">
                    <mxGeometry relative="1" as="geometry"/>
                </mxCell>
                <mxCell id="19" value="UC00: Ver perfil de usuario" style="rounded=1;whiteSpace=wrap;html=1;" parent="1" vertex="1">
                    <mxGeometry x="570" y="170" width="120" height="60" as="geometry"/>
                </mxCell>
                <mxCell id="22" value="UC00: Establecer tipo de usuario" style="rounded=1;whiteSpace=wrap;html=1;" parent="1" vertex="1">
                    <mxGeometry x="370" y="350" width="120" height="60" as="geometry"/>
                </mxCell>
                <mxCell id="84" style="edgeStyle=none;html=1;dashed=1;startArrow=none;startFill=0;endArrow=open;endFill=0;sourcePerimeterSpacing=0;" edge="1" parent="1" source="24" target="19">
                    <mxGeometry relative="1" as="geometry"/>
                </mxCell>
                <mxCell id="24" value="UC00: Editar perfil de usuario" style="rounded=1;whiteSpace=wrap;html=1;" parent="1" vertex="1">
                    <mxGeometry x="775" y="170" width="120" height="60" as="geometry"/>
                </mxCell>
                <mxCell id="80" style="edgeStyle=none;html=1;dashed=1;startArrow=none;startFill=0;endArrow=open;endFill=0;sourcePerimeterSpacing=0;" edge="1" parent="1" source="26" target="9">
                    <mxGeometry relative="1" as="geometry"/>
                </mxCell>
                <mxCell id="26" value="UC00: Cambiar contraseña" style="rounded=1;whiteSpace=wrap;html=1;" parent="1" vertex="1">
                    <mxGeometry x="170" y="40" width="120" height="60" as="geometry"/>
                </mxCell>
                <mxCell id="90" style="edgeStyle=none;html=1;dashed=1;startArrow=none;startFill=0;endArrow=open;endFill=0;sourcePerimeterSpacing=0;" edge="1" parent="1" source="31" target="22">
                    <mxGeometry relative="1" as="geometry"/>
                </mxCell>
                <mxCell id="91" style="edgeStyle=none;html=1;dashed=1;startArrow=none;startFill=0;endArrow=open;endFill=0;sourcePerimeterSpacing=0;" edge="1" parent="1" source="31" target="37">
                    <mxGeometry relative="1" as="geometry"/>
                </mxCell>
                <mxCell id="31" value="UC00: Establecer plan de cupo de usuarios" style="rounded=1;whiteSpace=wrap;html=1;" parent="1" vertex="1">
                    <mxGeometry x="370" y="460" width="120" height="60" as="geometry"/>
                </mxCell>
                <mxCell id="94" style="edgeStyle=none;html=1;dashed=1;startArrow=none;startFill=0;endArrow=open;endFill=0;sourcePerimeterSpacing=0;" edge="1" parent="1" source="37" target="39">
                    <mxGeometry relative="1" as="geometry"/>
                </mxCell>
                <mxCell id="37" value="UC00: Generar orden de pago" style="rounded=1;whiteSpace=wrap;html=1;" parent="1" vertex="1">
                    <mxGeometry x="370" y="710" width="120" height="60" as="geometry"/>
                </mxCell>
                <mxCell id="39" value="UC00: Establecer acuerdo de pago" style="rounded=1;whiteSpace=wrap;html=1;" parent="1" vertex="1">
                    <mxGeometry x="170" y="510" width="120" height="60" as="geometry"/>
                </mxCell>
                <mxCell id="93" style="edgeStyle=none;html=1;dashed=1;startArrow=none;startFill=0;endArrow=open;endFill=0;sourcePerimeterSpacing=0;" edge="1" parent="1" source="41" target="37">
                    <mxGeometry relative="1" as="geometry"/>
                </mxCell>
                <mxCell id="41" value="UC00: Realizar pago" style="rounded=1;whiteSpace=wrap;html=1;" vertex="1" parent="1">
                    <mxGeometry x="370" y="810" width="120" height="60" as="geometry"/>
                </mxCell>
                <mxCell id="43" value="UC00: Establecer Base de usuarios corporativos" style="rounded=1;whiteSpace=wrap;html=1;" vertex="1" parent="1">
                    <mxGeometry x="170" y="630" width="120" height="60" as="geometry"/>
                </mxCell>
                <mxCell id="81" style="edgeStyle=none;html=1;dashed=1;startArrow=none;startFill=0;endArrow=open;endFill=0;sourcePerimeterSpacing=0;" edge="1" parent="1" source="47" target="9">
                    <mxGeometry relative="1" as="geometry"/>
                </mxCell>
                <mxCell id="47" value="UC00: Hacer el curso" style="rounded=1;whiteSpace=wrap;html=1;" vertex="1" parent="1">
                    <mxGeometry x="330" y="40" width="120" height="60" as="geometry"/>
                </mxCell>
                <mxCell id="82" style="edgeStyle=none;html=1;dashed=1;startArrow=none;startFill=0;endArrow=open;endFill=0;sourcePerimeterSpacing=0;" edge="1" parent="1" source="49" target="9">
                    <mxGeometry relative="1" as="geometry"/>
                </mxCell>
                <mxCell id="49" value="UC00: Ver resultado del test MBTI" style="rounded=1;whiteSpace=wrap;html=1;" vertex="1" parent="1">
                    <mxGeometry x="490" y="40" width="120" height="60" as="geometry"/>
                </mxCell>
                <mxCell id="55" style="edgeStyle=none;html=1;endArrow=none;endFill=0;" edge="1" parent="1" source="52" target="54">
                    <mxGeometry relative="1" as="geometry"/>
                </mxCell>
                <mxCell id="57" style="edgeStyle=none;html=1;endArrow=none;endFill=0;" edge="1" parent="1" source="52" target="56">
                    <mxGeometry relative="1" as="geometry"/>
                </mxCell>
                <mxCell id="rZUXxs78r7aKgY_OuF1J-99" style="edgeStyle=none;html=1;startArrow=none;startFill=0;endArrow=none;endFill=0;sourcePerimeterSpacing=0;" edge="1" parent="1" source="52" target="T37bJehWPXh67WYYliuX-95">
                    <mxGeometry relative="1" as="geometry"/>
                </mxCell>
                <mxCell id="52" value="Sistema" style="shape=umlActor;verticalLabelPosition=bottom;verticalAlign=top;html=1;outlineConnect=0;" vertex="1" parent="1">
                    <mxGeometry x="1030" y="500" width="30" height="60" as="geometry"/>
                </mxCell>
                <mxCell id="60" style="edgeStyle=none;html=1;endArrow=none;endFill=0;" edge="1" parent="1" source="53" target="59">
                    <mxGeometry relative="1" as="geometry"/>
                </mxCell>
                <mxCell id="61" style="edgeStyle=none;html=1;endArrow=none;endFill=0;" edge="1" parent="1" source="53" target="58">
                    <mxGeometry relative="1" as="geometry"/>
                </mxCell>
                <mxCell id="rZUXxs78r7aKgY_OuF1J-101" style="edgeStyle=none;html=1;startArrow=none;startFill=0;endArrow=none;endFill=0;sourcePerimeterSpacing=0;" edge="1" parent="1" source="53" target="rZUXxs78r7aKgY_OuF1J-100">
                    <mxGeometry relative="1" as="geometry"/>
                </mxCell>
                <mxCell id="rZUXxs78r7aKgY_OuF1J-109" style="edgeStyle=none;html=1;startArrow=none;startFill=0;endArrow=none;endFill=0;sourcePerimeterSpacing=0;" edge="1" parent="1" source="53" target="rZUXxs78r7aKgY_OuF1J-108">
                    <mxGeometry relative="1" as="geometry"/>
                </mxCell>
                <mxCell id="53" value="Administrador" style="shape=umlActor;verticalLabelPosition=bottom;verticalAlign=top;html=1;outlineConnect=0;" vertex="1" parent="1">
                    <mxGeometry x="1020" y="1050" width="30" height="60" as="geometry"/>
                </mxCell>
                <mxCell id="54" value="UC00: Generar Notificación" style="rounded=1;whiteSpace=wrap;html=1;" vertex="1" parent="1">
                    <mxGeometry x="775" y="500" width="120" height="60" as="geometry"/>
                </mxCell>
                <mxCell id="56" value="UC00: Hacer Log de actividades" style="rounded=1;whiteSpace=wrap;html=1;" vertex="1" parent="1">
                    <mxGeometry x="775" y="585" width="120" height="60" as="geometry"/>
                </mxCell>
                <mxCell id="58" value="UC00: Subir Resultados de evaluación MBTI" style="rounded=1;whiteSpace=wrap;html=1;" vertex="1" parent="1">
                    <mxGeometry x="765" y="1160" width="120" height="60" as="geometry"/>
                </mxCell>
                <mxCell id="59" value="UC00: Descargar lista de usuarios" style="rounded=1;whiteSpace=wrap;html=1;" vertex="1" parent="1">
                    <mxGeometry x="765" y="1050" width="120" height="60" as="geometry"/>
                </mxCell>
                <mxCell id="65" style="edgeStyle=none;html=1;endArrow=none;endFill=0;sourcePerimeterSpacing=30;startArrow=block;startFill=0;" edge="1" parent="1" source="62" target="53">
                    <mxGeometry relative="1" as="geometry"/>
                </mxCell>
                <mxCell id="62" value="Usuario" style="shape=umlActor;verticalLabelPosition=bottom;verticalAlign=top;html=1;outlineConnect=0;" vertex="1" parent="1">
                    <mxGeometry x="1020" y="900" width="30" height="60" as="geometry"/>
                </mxCell>
                <mxCell id="T37bJehWPXh67WYYliuX-95" value="UC00: Generar enlace de recuperación de contraseña" style="rounded=1;whiteSpace=wrap;html=1;" vertex="1" parent="1">
                    <mxGeometry x="775" y="670" width="120" height="60" as="geometry"/>
                </mxCell>
                <mxCell id="rZUXxs78r7aKgY_OuF1J-96" style="edgeStyle=none;html=1;startArrow=none;startFill=0;endArrow=open;endFill=0;sourcePerimeterSpacing=0;dashed=1;" edge="1" parent="1" source="rZUXxs78r7aKgY_OuF1J-95" target="9">
                    <mxGeometry relative="1" as="geometry"/>
                </mxCell>
                <mxCell id="rZUXxs78r7aKgY_OuF1J-95" value="UC00: Hacer evaluación curso" style="rounded=1;whiteSpace=wrap;html=1;" vertex="1" parent="1">
                    <mxGeometry x="775" y="40" width="120" height="60" as="geometry"/>
                </mxCell>
                <mxCell id="rZUXxs78r7aKgY_OuF1J-98" style="edgeStyle=none;html=1;startArrow=none;startFill=0;endArrow=open;endFill=0;sourcePerimeterSpacing=0;dashed=1;" edge="1" parent="1" source="rZUXxs78r7aKgY_OuF1J-97" target="9">
                    <mxGeometry relative="1" as="geometry"/>
                </mxCell>
                <mxCell id="rZUXxs78r7aKgY_OuF1J-97" value="UC00: Descargar certificado" style="rounded=1;whiteSpace=wrap;html=1;" vertex="1" parent="1">
                    <mxGeometry x="930" y="90" width="120" height="60" as="geometry"/>
                </mxCell>
                <mxCell id="rZUXxs78r7aKgY_OuF1J-100" value="UC00: Ver listado de usuarios" style="rounded=1;whiteSpace=wrap;html=1;" vertex="1" parent="1">
                    <mxGeometry x="765" y="1290" width="120" height="60" as="geometry"/>
                </mxCell>
                <mxCell id="rZUXxs78r7aKgY_OuF1J-102" value="UC00: Cambiar Roles" style="rounded=1;whiteSpace=wrap;html=1;" vertex="1" parent="1">
                    <mxGeometry x="310" y="1290" width="120" height="60" as="geometry"/>
                </mxCell>
                <mxCell id="rZUXxs78r7aKgY_OuF1J-105" style="edgeStyle=none;html=1;dashed=1;startArrow=none;startFill=0;endArrow=open;endFill=0;sourcePerimeterSpacing=0;" edge="1" parent="1" source="rZUXxs78r7aKgY_OuF1J-106" target="rZUXxs78r7aKgY_OuF1J-100">
                    <mxGeometry relative="1" as="geometry">
                        <mxPoint x="420" y="820" as="sourcePoint"/>
                        <mxPoint x="420" y="1010" as="targetPoint"/>
                        <Array as="points"/>
                    </mxGeometry>
                </mxCell>
                <mxCell id="rZUXxs78r7aKgY_OuF1J-106" value="UC00: Ver estado de usuario" style="rounded=1;whiteSpace=wrap;html=1;" vertex="1" parent="1">
                    <mxGeometry x="540" y="1290" width="120" height="60" as="geometry"/>
                </mxCell>
                <mxCell id="rZUXxs78r7aKgY_OuF1J-107" style="edgeStyle=none;html=1;dashed=1;startArrow=none;startFill=0;endArrow=open;endFill=0;sourcePerimeterSpacing=0;" edge="1" parent="1" source="rZUXxs78r7aKgY_OuF1J-102" target="rZUXxs78r7aKgY_OuF1J-106">
                    <mxGeometry relative="1" as="geometry">
                        <mxPoint x="450" y="1360" as="sourcePoint"/>
                        <mxPoint x="545" y="1360" as="targetPoint"/>
                        <Array as="points"/>
                    </mxGeometry>
                </mxCell>
                <mxCell id="rZUXxs78r7aKgY_OuF1J-108" value="UC00: Comprobar pagos" style="rounded=1;whiteSpace=wrap;html=1;" vertex="1" parent="1">
                    <mxGeometry x="765" y="940" width="120" height="60" as="geometry"/>
                </mxCell>
            </root>
        </mxGraphModel>
    </diagram>
    <diagram id="eLJFZhEeJO0OmvdGnUSY" name="ObjetoDominio">
        <mxGraphModel dx="1093" dy="618" grid="1" gridSize="10" guides="1" tooltips="1" connect="1" arrows="1" fold="1" page="1" pageScale="1" pageWidth="1100" pageHeight="850" math="0" shadow="0">
            <root>
                <mxCell id="0EWs27-9HeNjFim4unom-0"/>
                <mxCell id="0EWs27-9HeNjFim4unom-1" parent="0EWs27-9HeNjFim4unom-0"/>
                <mxCell id="0EWs27-9HeNjFim4unom-9" style="edgeStyle=none;html=1;startArrow=none;startFill=0;endArrow=none;endFill=0;sourcePerimeterSpacing=0;" edge="1" parent="0EWs27-9HeNjFim4unom-1" source="0EWs27-9HeNjFim4unom-2" target="0EWs27-9HeNjFim4unom-8">
                    <mxGeometry relative="1" as="geometry"/>
                </mxCell>
                <mxCell id="0EWs27-9HeNjFim4unom-10" style="edgeStyle=none;html=1;startArrow=none;startFill=0;endArrow=none;endFill=0;sourcePerimeterSpacing=0;" edge="1" parent="0EWs27-9HeNjFim4unom-1" source="0EWs27-9HeNjFim4unom-6" target="0EWs27-9HeNjFim4unom-5">
                    <mxGeometry relative="1" as="geometry"/>
                </mxCell>
                <mxCell id="0EWs27-9HeNjFim4unom-2" value="Cliente Corporativo" style="rounded=0;whiteSpace=wrap;html=1;" vertex="1" parent="0EWs27-9HeNjFim4unom-1">
                    <mxGeometry x="200" y="90" width="120" height="60" as="geometry"/>
                </mxCell>
                <mxCell id="0EWs27-9HeNjFim4unom-3" value="Cliente Natural" style="rounded=0;whiteSpace=wrap;html=1;" vertex="1" parent="0EWs27-9HeNjFim4unom-1">
                    <mxGeometry x="200" y="250" width="120" height="60" as="geometry"/>
                </mxCell>
                <mxCell id="0EWs27-9HeNjFim4unom-38" style="edgeStyle=none;html=1;startArrow=none;startFill=0;endArrow=none;endFill=0;sourcePerimeterSpacing=0;" edge="1" parent="0EWs27-9HeNjFim4unom-1" source="0EWs27-9HeNjFim4unom-4" target="0EWs27-9HeNjFim4unom-34">
                    <mxGeometry relative="1" as="geometry"/>
                </mxCell>
                <mxCell id="0EWs27-9HeNjFim4unom-4" value="Evaluación&lt;br&gt;MBTI" style="rounded=0;whiteSpace=wrap;html=1;" vertex="1" parent="0EWs27-9HeNjFim4unom-1">
                    <mxGeometry x="760" y="250" width="120" height="60" as="geometry"/>
                </mxCell>
                <mxCell id="0EWs27-9HeNjFim4unom-44" style="edgeStyle=none;html=1;startArrow=none;startFill=0;endArrow=none;endFill=0;sourcePerimeterSpacing=0;" edge="1" parent="0EWs27-9HeNjFim4unom-1" source="0EWs27-9HeNjFim4unom-5" target="0EWs27-9HeNjFim4unom-43">
                    <mxGeometry relative="1" as="geometry">
                        <Array as="points">
                            <mxPoint x="260" y="480"/>
                        </Array>
                    </mxGeometry>
                </mxCell>
                <mxCell id="0EWs27-9HeNjFim4unom-57" style="edgeStyle=none;html=1;startArrow=none;startFill=0;endArrow=none;endFill=0;sourcePerimeterSpacing=0;" edge="1" parent="0EWs27-9HeNjFim4unom-1" source="0EWs27-9HeNjFim4unom-5" target="0EWs27-9HeNjFim4unom-7">
                    <mxGeometry relative="1" as="geometry"/>
                </mxCell>
                <mxCell id="0EWs27-9HeNjFim4unom-5" value="Orden de pago" style="rounded=0;whiteSpace=wrap;html=1;" vertex="1" parent="0EWs27-9HeNjFim4unom-1">
                    <mxGeometry x="200" y="410" width="120" height="60" as="geometry"/>
                </mxCell>
                <mxCell id="0EWs27-9HeNjFim4unom-61" style="edgeStyle=none;html=1;startArrow=none;startFill=0;endArrow=none;endFill=0;sourcePerimeterSpacing=0;" edge="1" parent="0EWs27-9HeNjFim4unom-1" source="0EWs27-9HeNjFim4unom-6" target="0EWs27-9HeNjFim4unom-4">
                    <mxGeometry relative="1" as="geometry"/>
                </mxCell>
                <mxCell id="0EWs27-9HeNjFim4unom-63" style="edgeStyle=none;html=1;startArrow=none;startFill=0;endArrow=none;endFill=0;sourcePerimeterSpacing=0;" edge="1" parent="0EWs27-9HeNjFim4unom-1" source="0EWs27-9HeNjFim4unom-6" target="0EWs27-9HeNjFim4unom-34">
                    <mxGeometry relative="1" as="geometry"/>
                </mxCell>
                <mxCell id="0EWs27-9HeNjFim4unom-72" style="edgeStyle=none;html=1;startArrow=none;startFill=0;endArrow=none;endFill=0;sourcePerimeterSpacing=0;" edge="1" parent="0EWs27-9HeNjFim4unom-1" source="0EWs27-9HeNjFim4unom-6" target="0EWs27-9HeNjFim4unom-71">
                    <mxGeometry relative="1" as="geometry"/>
                </mxCell>
                <mxCell id="0EWs27-9HeNjFim4unom-84" style="edgeStyle=none;html=1;startArrow=block;startFill=0;endArrow=none;endFill=0;sourcePerimeterSpacing=0;" edge="1" parent="0EWs27-9HeNjFim4unom-1" source="0EWs27-9HeNjFim4unom-6" target="0EWs27-9HeNjFim4unom-8">
                    <mxGeometry relative="1" as="geometry"/>
                </mxCell>
                <mxCell id="0EWs27-9HeNjFim4unom-85" style="edgeStyle=none;html=1;startArrow=block;startFill=0;endArrow=none;endFill=0;sourcePerimeterSpacing=0;" edge="1" parent="0EWs27-9HeNjFim4unom-1" source="0EWs27-9HeNjFim4unom-6" target="0EWs27-9HeNjFim4unom-2">
                    <mxGeometry relative="1" as="geometry"/>
                </mxCell>
                <mxCell id="0EWs27-9HeNjFim4unom-86" style="edgeStyle=none;html=1;startArrow=block;startFill=0;endArrow=none;endFill=0;sourcePerimeterSpacing=0;" edge="1" parent="0EWs27-9HeNjFim4unom-1" source="0EWs27-9HeNjFim4unom-6" target="0EWs27-9HeNjFim4unom-3">
                    <mxGeometry relative="1" as="geometry"/>
                </mxCell>
                <mxCell id="0EWs27-9HeNjFim4unom-87" style="edgeStyle=none;html=1;startArrow=block;startFill=0;endArrow=none;endFill=0;sourcePerimeterSpacing=0;" edge="1" parent="0EWs27-9HeNjFim4unom-1" source="0EWs27-9HeNjFim4unom-6" target="0EWs27-9HeNjFim4unom-7">
                    <mxGeometry relative="1" as="geometry"/>
                </mxCell>
                <mxCell id="0EWs27-9HeNjFim4unom-6" value="Usuario" style="rounded=0;whiteSpace=wrap;html=1;" vertex="1" parent="0EWs27-9HeNjFim4unom-1">
                    <mxGeometry x="480" y="250" width="120" height="60" as="geometry"/>
                </mxCell>
                <mxCell id="0EWs27-9HeNjFim4unom-35" value="" style="edgeStyle=none;html=1;startArrow=none;startFill=0;endArrow=none;endFill=0;sourcePerimeterSpacing=0;" edge="1" parent="0EWs27-9HeNjFim4unom-1" source="0EWs27-9HeNjFim4unom-7" target="0EWs27-9HeNjFim4unom-34">
                    <mxGeometry relative="1" as="geometry"/>
                </mxCell>
                <mxCell id="0EWs27-9HeNjFim4unom-7" value="Administrador" style="rounded=0;whiteSpace=wrap;html=1;" vertex="1" parent="0EWs27-9HeNjFim4unom-1">
                    <mxGeometry x="480" y="410" width="120" height="60" as="geometry"/>
                </mxCell>
                <mxCell id="0EWs27-9HeNjFim4unom-8" value="SubUsuarios&lt;br&gt;Corporativos" style="rounded=0;whiteSpace=wrap;html=1;" vertex="1" parent="0EWs27-9HeNjFim4unom-1">
                    <mxGeometry x="480" y="90" width="120" height="60" as="geometry"/>
                </mxCell>
                <mxCell id="0EWs27-9HeNjFim4unom-13" value="x" style="text;html=1;strokeColor=none;fillColor=none;align=center;verticalAlign=middle;whiteSpace=wrap;rounded=0;" vertex="1" parent="0EWs27-9HeNjFim4unom-1">
                    <mxGeometry x="460" y="100" width="20" height="20" as="geometry"/>
                </mxCell>
                <mxCell id="0EWs27-9HeNjFim4unom-16" value="1" style="text;html=1;strokeColor=none;fillColor=none;align=center;verticalAlign=middle;whiteSpace=wrap;rounded=0;" vertex="1" parent="0EWs27-9HeNjFim4unom-1">
                    <mxGeometry x="320" y="100" width="20" height="20" as="geometry"/>
                </mxCell>
                <mxCell id="0EWs27-9HeNjFim4unom-18" value="1" style="text;html=1;strokeColor=none;fillColor=none;align=center;verticalAlign=middle;whiteSpace=wrap;rounded=0;" vertex="1" parent="0EWs27-9HeNjFim4unom-1">
                    <mxGeometry x="310" y="390" width="20" height="20" as="geometry"/>
                </mxCell>
                <mxCell id="0EWs27-9HeNjFim4unom-19" value="1" style="text;html=1;strokeColor=none;fillColor=none;align=center;verticalAlign=middle;whiteSpace=wrap;rounded=0;" vertex="1" parent="0EWs27-9HeNjFim4unom-1">
                    <mxGeometry x="460" y="300" width="20" height="20" as="geometry"/>
                </mxCell>
                <mxCell id="0EWs27-9HeNjFim4unom-34" value="Resultado de la evaluación MBTI" style="rounded=0;whiteSpace=wrap;html=1;" vertex="1" parent="0EWs27-9HeNjFim4unom-1">
                    <mxGeometry x="760" y="410" width="120" height="60" as="geometry"/>
                </mxCell>
                <mxCell id="0EWs27-9HeNjFim4unom-36" value="1" style="text;html=1;strokeColor=none;fillColor=none;align=center;verticalAlign=middle;whiteSpace=wrap;rounded=0;" vertex="1" parent="0EWs27-9HeNjFim4unom-1">
                    <mxGeometry x="600" y="420" width="20" height="20" as="geometry"/>
                </mxCell>
                <mxCell id="0EWs27-9HeNjFim4unom-37" value="x" style="text;html=1;strokeColor=none;fillColor=none;align=center;verticalAlign=middle;whiteSpace=wrap;rounded=0;" vertex="1" parent="0EWs27-9HeNjFim4unom-1">
                    <mxGeometry x="740" y="420" width="20" height="20" as="geometry"/>
                </mxCell>
                <mxCell id="0EWs27-9HeNjFim4unom-39" value="1" style="text;html=1;strokeColor=none;fillColor=none;align=center;verticalAlign=middle;whiteSpace=wrap;rounded=0;" vertex="1" parent="0EWs27-9HeNjFim4unom-1">
                    <mxGeometry x="820" y="310" width="20" height="20" as="geometry"/>
                </mxCell>
                <mxCell id="0EWs27-9HeNjFim4unom-40" value="1" style="text;html=1;strokeColor=none;fillColor=none;align=center;verticalAlign=middle;whiteSpace=wrap;rounded=0;" vertex="1" parent="0EWs27-9HeNjFim4unom-1">
                    <mxGeometry x="820" y="390" width="20" height="20" as="geometry"/>
                </mxCell>
                <mxCell id="0EWs27-9HeNjFim4unom-41" value="Realiza" style="text;html=1;strokeColor=none;fillColor=none;align=center;verticalAlign=middle;whiteSpace=wrap;rounded=0;" vertex="1" parent="0EWs27-9HeNjFim4unom-1">
                    <mxGeometry x="350" y="340" width="60" height="30" as="geometry"/>
                </mxCell>
                <mxCell id="0EWs27-9HeNjFim4unom-54" style="edgeStyle=none;html=1;startArrow=none;startFill=0;endArrow=none;endFill=0;sourcePerimeterSpacing=0;" edge="1" parent="0EWs27-9HeNjFim4unom-1" source="0EWs27-9HeNjFim4unom-43" target="0EWs27-9HeNjFim4unom-53">
                    <mxGeometry relative="1" as="geometry"/>
                </mxCell>
                <mxCell id="0EWs27-9HeNjFim4unom-43" value="Transacción" style="rounded=0;whiteSpace=wrap;html=1;" vertex="1" parent="0EWs27-9HeNjFim4unom-1">
                    <mxGeometry x="200" y="540" width="120" height="60" as="geometry"/>
                </mxCell>
                <mxCell id="0EWs27-9HeNjFim4unom-45" value="1" style="text;html=1;strokeColor=none;fillColor=none;align=center;verticalAlign=middle;whiteSpace=wrap;rounded=0;" vertex="1" parent="0EWs27-9HeNjFim4unom-1">
                    <mxGeometry x="260" y="470" width="20" height="20" as="geometry"/>
                </mxCell>
                <mxCell id="0EWs27-9HeNjFim4unom-46" value="x" style="text;html=1;strokeColor=none;fillColor=none;align=center;verticalAlign=middle;whiteSpace=wrap;rounded=0;" vertex="1" parent="0EWs27-9HeNjFim4unom-1">
                    <mxGeometry x="260" y="520" width="20" height="20" as="geometry"/>
                </mxCell>
                <mxCell id="0EWs27-9HeNjFim4unom-47" value="Genera" style="text;html=1;strokeColor=none;fillColor=none;align=center;verticalAlign=middle;whiteSpace=wrap;rounded=0;" vertex="1" parent="0EWs27-9HeNjFim4unom-1">
                    <mxGeometry x="260" y="490" width="60" height="30" as="geometry"/>
                </mxCell>
                <mxCell id="0EWs27-9HeNjFim4unom-48" value="establece" style="text;html=1;strokeColor=none;fillColor=none;align=center;verticalAlign=middle;whiteSpace=wrap;rounded=0;" vertex="1" parent="0EWs27-9HeNjFim4unom-1">
                    <mxGeometry x="370" y="90" width="60" height="30" as="geometry"/>
                </mxCell>
                <mxCell id="0EWs27-9HeNjFim4unom-80" style="edgeStyle=none;html=1;startArrow=none;startFill=0;endArrow=none;endFill=0;sourcePerimeterSpacing=0;" edge="1" parent="0EWs27-9HeNjFim4unom-1" source="0EWs27-9HeNjFim4unom-53" target="0EWs27-9HeNjFim4unom-7">
                    <mxGeometry relative="1" as="geometry"/>
                </mxCell>
                <mxCell id="0EWs27-9HeNjFim4unom-53" value="Notificación" style="rounded=0;whiteSpace=wrap;html=1;" vertex="1" parent="0EWs27-9HeNjFim4unom-1">
                    <mxGeometry x="480" y="540" width="120" height="60" as="geometry"/>
                </mxCell>
                <mxCell id="0EWs27-9HeNjFim4unom-55" value="1" style="text;html=1;strokeColor=none;fillColor=none;align=center;verticalAlign=middle;whiteSpace=wrap;rounded=0;" vertex="1" parent="0EWs27-9HeNjFim4unom-1">
                    <mxGeometry x="320" y="550" width="20" height="20" as="geometry"/>
                </mxCell>
                <mxCell id="0EWs27-9HeNjFim4unom-56" value="1" style="text;html=1;strokeColor=none;fillColor=none;align=center;verticalAlign=middle;whiteSpace=wrap;rounded=0;" vertex="1" parent="0EWs27-9HeNjFim4unom-1">
                    <mxGeometry x="460" y="550" width="20" height="20" as="geometry"/>
                </mxCell>
                <mxCell id="0EWs27-9HeNjFim4unom-58" value="1" style="text;html=1;strokeColor=none;fillColor=none;align=center;verticalAlign=middle;whiteSpace=wrap;rounded=0;" vertex="1" parent="0EWs27-9HeNjFim4unom-1">
                    <mxGeometry x="460" y="420" width="20" height="20" as="geometry"/>
                </mxCell>
                <mxCell id="0EWs27-9HeNjFim4unom-59" value="x" style="text;html=1;strokeColor=none;fillColor=none;align=center;verticalAlign=middle;whiteSpace=wrap;rounded=0;" vertex="1" parent="0EWs27-9HeNjFim4unom-1">
                    <mxGeometry x="320" y="420" width="20" height="20" as="geometry"/>
                </mxCell>
                <mxCell id="0EWs27-9HeNjFim4unom-60" value="Consulta" style="text;html=1;strokeColor=none;fillColor=none;align=center;verticalAlign=middle;whiteSpace=wrap;rounded=0;" vertex="1" parent="0EWs27-9HeNjFim4unom-1">
                    <mxGeometry x="370" y="415" width="60" height="30" as="geometry"/>
                </mxCell>
                <mxCell id="0EWs27-9HeNjFim4unom-62" value="Genera" style="text;html=1;strokeColor=none;fillColor=none;align=center;verticalAlign=middle;whiteSpace=wrap;rounded=0;" vertex="1" parent="0EWs27-9HeNjFim4unom-1">
                    <mxGeometry x="820" y="350" width="60" height="30" as="geometry"/>
                </mxCell>
                <mxCell id="0EWs27-9HeNjFim4unom-64" value="1" style="text;html=1;strokeColor=none;fillColor=none;align=center;verticalAlign=middle;whiteSpace=wrap;rounded=0;" vertex="1" parent="0EWs27-9HeNjFim4unom-1">
                    <mxGeometry x="760" y="390" width="20" height="20" as="geometry"/>
                </mxCell>
                <mxCell id="0EWs27-9HeNjFim4unom-65" value="1" style="text;html=1;strokeColor=none;fillColor=none;align=center;verticalAlign=middle;whiteSpace=wrap;rounded=0;" vertex="1" parent="0EWs27-9HeNjFim4unom-1">
                    <mxGeometry x="600" y="300" width="20" height="20" as="geometry"/>
                </mxCell>
                <mxCell id="0EWs27-9HeNjFim4unom-66" value="Obtiene" style="text;html=1;strokeColor=none;fillColor=none;align=center;verticalAlign=middle;whiteSpace=wrap;rounded=0;" vertex="1" parent="0EWs27-9HeNjFim4unom-1">
                    <mxGeometry x="670" y="340" width="60" height="30" as="geometry"/>
                </mxCell>
                <mxCell id="0EWs27-9HeNjFim4unom-67" value="Carga" style="text;html=1;strokeColor=none;fillColor=none;align=center;verticalAlign=middle;whiteSpace=wrap;rounded=0;" vertex="1" parent="0EWs27-9HeNjFim4unom-1">
                    <mxGeometry x="650" y="415" width="60" height="30" as="geometry"/>
                </mxCell>
                <mxCell id="0EWs27-9HeNjFim4unom-68" value="1" style="text;html=1;strokeColor=none;fillColor=none;align=center;verticalAlign=middle;whiteSpace=wrap;rounded=0;" vertex="1" parent="0EWs27-9HeNjFim4unom-1">
                    <mxGeometry x="600" y="260" width="20" height="20" as="geometry"/>
                </mxCell>
                <mxCell id="0EWs27-9HeNjFim4unom-69" value="1" style="text;html=1;strokeColor=none;fillColor=none;align=center;verticalAlign=middle;whiteSpace=wrap;rounded=0;" vertex="1" parent="0EWs27-9HeNjFim4unom-1">
                    <mxGeometry x="740" y="260" width="20" height="20" as="geometry"/>
                </mxCell>
                <mxCell id="0EWs27-9HeNjFim4unom-70" value="Realiza" style="text;html=1;strokeColor=none;fillColor=none;align=center;verticalAlign=middle;whiteSpace=wrap;rounded=0;" vertex="1" parent="0EWs27-9HeNjFim4unom-1">
                    <mxGeometry x="650" y="250" width="60" height="30" as="geometry"/>
                </mxCell>
                <mxCell id="0EWs27-9HeNjFim4unom-71" value="Curso" style="rounded=0;whiteSpace=wrap;html=1;" vertex="1" parent="0EWs27-9HeNjFim4unom-1">
                    <mxGeometry x="760" y="90" width="120" height="60" as="geometry"/>
                </mxCell>
                <mxCell id="0EWs27-9HeNjFim4unom-73" value="1" style="text;html=1;strokeColor=none;fillColor=none;align=center;verticalAlign=middle;whiteSpace=wrap;rounded=0;" vertex="1" parent="0EWs27-9HeNjFim4unom-1">
                    <mxGeometry x="580" y="230" width="20" height="20" as="geometry"/>
                </mxCell>
                <mxCell id="0EWs27-9HeNjFim4unom-74" value="x" style="text;html=1;strokeColor=none;fillColor=none;align=center;verticalAlign=middle;whiteSpace=wrap;rounded=0;" vertex="1" parent="0EWs27-9HeNjFim4unom-1">
                    <mxGeometry x="740" y="140" width="20" height="20" as="geometry"/>
                </mxCell>
                <mxCell id="0EWs27-9HeNjFim4unom-75" value="Realiza" style="text;html=1;strokeColor=none;fillColor=none;align=center;verticalAlign=middle;whiteSpace=wrap;rounded=0;" vertex="1" parent="0EWs27-9HeNjFim4unom-1">
                    <mxGeometry x="640" y="170" width="60" height="30" as="geometry"/>
                </mxCell>
                <mxCell id="0EWs27-9HeNjFim4unom-79" value="Genera" style="text;html=1;strokeColor=none;fillColor=none;align=center;verticalAlign=middle;whiteSpace=wrap;rounded=0;" vertex="1" parent="0EWs27-9HeNjFim4unom-1">
                    <mxGeometry x="370" y="545" width="60" height="30" as="geometry"/>
                </mxCell>
                <mxCell id="0EWs27-9HeNjFim4unom-81" value="Revisa" style="text;html=1;strokeColor=none;fillColor=none;align=center;verticalAlign=middle;whiteSpace=wrap;rounded=0;" vertex="1" parent="0EWs27-9HeNjFim4unom-1">
                    <mxGeometry x="540" y="490" width="60" height="30" as="geometry"/>
                </mxCell>
                <mxCell id="0EWs27-9HeNjFim4unom-82" value="1" style="text;html=1;strokeColor=none;fillColor=none;align=center;verticalAlign=middle;whiteSpace=wrap;rounded=0;" vertex="1" parent="0EWs27-9HeNjFim4unom-1">
                    <mxGeometry x="540" y="470" width="20" height="20" as="geometry"/>
                </mxCell>
                <mxCell id="0EWs27-9HeNjFim4unom-83" value="1" style="text;html=1;strokeColor=none;fillColor=none;align=center;verticalAlign=middle;whiteSpace=wrap;rounded=0;" vertex="1" parent="0EWs27-9HeNjFim4unom-1">
                    <mxGeometry x="540" y="520" width="20" height="20" as="geometry"/>
                </mxCell>
            </root>
        </mxGraphModel>
    </diagram>
    <diagram id="xX8tvpBelQaRzRdg0BwZ" name="MapaContenido">
        <mxGraphModel dx="1093" dy="618" grid="1" gridSize="10" guides="1" tooltips="1" connect="1" arrows="1" fold="1" page="1" pageScale="1" pageWidth="1100" pageHeight="850" math="0" shadow="0">
            <root>
                <mxCell id="eNKYxBsOCk_GWGlPTTgq-0"/>
                <mxCell id="eNKYxBsOCk_GWGlPTTgq-1" parent="eNKYxBsOCk_GWGlPTTgq-0"/>
                <mxCell id="eNKYxBsOCk_GWGlPTTgq-50" style="edgeStyle=none;html=1;startArrow=none;startFill=0;endArrow=open;endFill=0;sourcePerimeterSpacing=0;" edge="1" parent="eNKYxBsOCk_GWGlPTTgq-1" source="eNKYxBsOCk_GWGlPTTgq-2" target="eNKYxBsOCk_GWGlPTTgq-5">
                    <mxGeometry relative="1" as="geometry"/>
                </mxCell>
                <mxCell id="eNKYxBsOCk_GWGlPTTgq-51" style="edgeStyle=none;html=1;startArrow=none;startFill=0;endArrow=open;endFill=0;sourcePerimeterSpacing=0;" edge="1" parent="eNKYxBsOCk_GWGlPTTgq-1" source="eNKYxBsOCk_GWGlPTTgq-2" target="eNKYxBsOCk_GWGlPTTgq-113">
                    <mxGeometry relative="1" as="geometry">
                        <mxPoint x="290" y="160" as="targetPoint"/>
                        <Array as="points">
                            <mxPoint x="480" y="130"/>
                            <mxPoint x="290" y="130"/>
                        </Array>
                    </mxGeometry>
                </mxCell>
                <mxCell id="eNKYxBsOCk_GWGlPTTgq-52" style="edgeStyle=none;html=1;startArrow=none;startFill=0;endArrow=open;endFill=0;sourcePerimeterSpacing=0;" edge="1" parent="eNKYxBsOCk_GWGlPTTgq-1" source="eNKYxBsOCk_GWGlPTTgq-2" target="eNKYxBsOCk_GWGlPTTgq-48">
                    <mxGeometry relative="1" as="geometry">
                        <Array as="points">
                            <mxPoint x="480" y="130"/>
                            <mxPoint x="100" y="130"/>
                        </Array>
                    </mxGeometry>
                </mxCell>
                <mxCell id="eNKYxBsOCk_GWGlPTTgq-77" style="edgeStyle=none;html=1;startArrow=none;startFill=0;endArrow=open;endFill=0;sourcePerimeterSpacing=0;" edge="1" parent="eNKYxBsOCk_GWGlPTTgq-1" source="eNKYxBsOCk_GWGlPTTgq-2" target="eNKYxBsOCk_GWGlPTTgq-76">
                    <mxGeometry relative="1" as="geometry">
                        <Array as="points">
                            <mxPoint x="480" y="130"/>
                            <mxPoint x="200" y="130"/>
                        </Array>
                    </mxGeometry>
                </mxCell>
                <mxCell id="eNKYxBsOCk_GWGlPTTgq-83" style="edgeStyle=none;html=1;startArrow=none;startFill=0;endArrow=open;endFill=0;sourcePerimeterSpacing=0;" edge="1" parent="eNKYxBsOCk_GWGlPTTgq-1" source="eNKYxBsOCk_GWGlPTTgq-2" target="eNKYxBsOCk_GWGlPTTgq-82">
                    <mxGeometry relative="1" as="geometry">
                        <Array as="points">
                            <mxPoint x="480" y="130"/>
                            <mxPoint x="820" y="130"/>
                        </Array>
                    </mxGeometry>
                </mxCell>
                <mxCell id="eNKYxBsOCk_GWGlPTTgq-2" value="Home" style="rounded=0;whiteSpace=wrap;html=1;" vertex="1" parent="eNKYxBsOCk_GWGlPTTgq-1">
                    <mxGeometry x="420" y="40" width="120" height="60" as="geometry"/>
                </mxCell>
                <mxCell id="eNKYxBsOCk_GWGlPTTgq-55" style="edgeStyle=none;html=1;startArrow=none;startFill=0;endArrow=open;endFill=0;sourcePerimeterSpacing=0;" edge="1" parent="eNKYxBsOCk_GWGlPTTgq-1" source="eNKYxBsOCk_GWGlPTTgq-5" target="eNKYxBsOCk_GWGlPTTgq-6">
                    <mxGeometry relative="1" as="geometry"/>
                </mxCell>
                <mxCell id="eNKYxBsOCk_GWGlPTTgq-5" value="Blog" style="rounded=0;whiteSpace=wrap;html=1;" vertex="1" parent="eNKYxBsOCk_GWGlPTTgq-1">
                    <mxGeometry x="420" y="160" width="120" height="60" as="geometry"/>
                </mxCell>
                <mxCell id="eNKYxBsOCk_GWGlPTTgq-63" style="edgeStyle=none;html=1;startArrow=none;startFill=0;endArrow=open;endFill=0;sourcePerimeterSpacing=0;" edge="1" parent="eNKYxBsOCk_GWGlPTTgq-1" source="eNKYxBsOCk_GWGlPTTgq-6" target="eNKYxBsOCk_GWGlPTTgq-62">
                    <mxGeometry relative="1" as="geometry"/>
                </mxCell>
                <mxCell id="eNKYxBsOCk_GWGlPTTgq-6" value="Publicación" style="rounded=0;whiteSpace=wrap;html=1;" vertex="1" parent="eNKYxBsOCk_GWGlPTTgq-1">
                    <mxGeometry x="420" y="270" width="120" height="60" as="geometry"/>
                </mxCell>
                <mxCell id="eNKYxBsOCk_GWGlPTTgq-75" style="edgeStyle=none;html=1;startArrow=none;startFill=0;endArrow=open;endFill=0;sourcePerimeterSpacing=0;" edge="1" parent="eNKYxBsOCk_GWGlPTTgq-1" source="eNKYxBsOCk_GWGlPTTgq-8" target="eNKYxBsOCk_GWGlPTTgq-74">
                    <mxGeometry relative="1" as="geometry">
                        <Array as="points">
                            <mxPoint x="920" y="670"/>
                            <mxPoint x="670" y="670"/>
                        </Array>
                    </mxGeometry>
                </mxCell>
                <mxCell id="eNKYxBsOCk_GWGlPTTgq-119" style="edgeStyle=none;html=1;startArrow=none;startFill=0;endArrow=open;endFill=0;sourcePerimeterSpacing=0;" edge="1" parent="eNKYxBsOCk_GWGlPTTgq-1" source="eNKYxBsOCk_GWGlPTTgq-8" target="eNKYxBsOCk_GWGlPTTgq-125">
                    <mxGeometry relative="1" as="geometry">
                        <mxPoint x="1340" y="700" as="targetPoint"/>
                        <Array as="points">
                            <mxPoint x="920" y="670"/>
                            <mxPoint x="1770" y="670"/>
                        </Array>
                    </mxGeometry>
                </mxCell>
                <mxCell id="eNKYxBsOCk_GWGlPTTgq-8" value="Dashboard" style="rounded=0;whiteSpace=wrap;html=1;" vertex="1" parent="eNKYxBsOCk_GWGlPTTgq-1">
                    <mxGeometry x="860" y="580" width="120" height="60" as="geometry"/>
                </mxCell>
                <mxCell id="eNKYxBsOCk_GWGlPTTgq-48" value="Quienes somos" style="rounded=0;whiteSpace=wrap;html=1;" vertex="1" parent="eNKYxBsOCk_GWGlPTTgq-1">
                    <mxGeometry x="40" y="160" width="120" height="60" as="geometry"/>
                </mxCell>
                <mxCell id="eNKYxBsOCk_GWGlPTTgq-57" value="" style="group" vertex="1" connectable="0" parent="eNKYxBsOCk_GWGlPTTgq-1">
                    <mxGeometry x="420" y="470" width="120" height="60" as="geometry"/>
                </mxCell>
                <mxCell id="eNKYxBsOCk_GWGlPTTgq-7" value="Comentarios" style="rounded=0;whiteSpace=wrap;html=1;" vertex="1" parent="eNKYxBsOCk_GWGlPTTgq-57">
                    <mxGeometry width="120" height="60" as="geometry"/>
                </mxCell>
                <mxCell id="eNKYxBsOCk_GWGlPTTgq-47" value="" style="sketch=0;pointerEvents=1;shadow=0;dashed=0;html=1;strokeColor=none;fillColor=#505050;labelPosition=center;verticalLabelPosition=bottom;verticalAlign=top;outlineConnect=0;align=center;shape=mxgraph.office.concepts.form;" vertex="1" parent="eNKYxBsOCk_GWGlPTTgq-57">
                    <mxGeometry width="22.86" height="20" as="geometry"/>
                </mxCell>
                <mxCell id="eNKYxBsOCk_GWGlPTTgq-58" value="" style="group" vertex="1" connectable="0" parent="eNKYxBsOCk_GWGlPTTgq-1">
                    <mxGeometry x="660" y="270" width="120" height="60" as="geometry"/>
                </mxCell>
                <mxCell id="eNKYxBsOCk_GWGlPTTgq-4" value="Registro" style="rounded=0;whiteSpace=wrap;html=1;" vertex="1" parent="eNKYxBsOCk_GWGlPTTgq-58">
                    <mxGeometry width="120" height="60" as="geometry"/>
                </mxCell>
                <mxCell id="eNKYxBsOCk_GWGlPTTgq-45" value="" style="sketch=0;pointerEvents=1;shadow=0;dashed=0;html=1;strokeColor=none;fillColor=#505050;labelPosition=center;verticalLabelPosition=bottom;verticalAlign=top;outlineConnect=0;align=center;shape=mxgraph.office.concepts.form;" vertex="1" parent="eNKYxBsOCk_GWGlPTTgq-58">
                    <mxGeometry width="22.86" height="20" as="geometry"/>
                </mxCell>
                <mxCell id="eNKYxBsOCk_GWGlPTTgq-59" value="" style="group" vertex="1" connectable="0" parent="eNKYxBsOCk_GWGlPTTgq-1">
                    <mxGeometry x="860" y="270" width="120" height="60" as="geometry"/>
                </mxCell>
                <mxCell id="eNKYxBsOCk_GWGlPTTgq-3" value="Iniciar sesión" style="rounded=0;whiteSpace=wrap;html=1;" vertex="1" parent="eNKYxBsOCk_GWGlPTTgq-59">
                    <mxGeometry width="120" height="60" as="geometry"/>
                </mxCell>
                <mxCell id="eNKYxBsOCk_GWGlPTTgq-46" value="" style="sketch=0;pointerEvents=1;shadow=0;dashed=0;html=1;strokeColor=none;fillColor=#505050;labelPosition=center;verticalLabelPosition=bottom;verticalAlign=top;outlineConnect=0;align=center;shape=mxgraph.office.concepts.form;" vertex="1" parent="eNKYxBsOCk_GWGlPTTgq-59">
                    <mxGeometry width="22.86" height="20" as="geometry"/>
                </mxCell>
                <mxCell id="eNKYxBsOCk_GWGlPTTgq-64" style="edgeStyle=none;html=1;startArrow=none;startFill=0;endArrow=open;endFill=0;sourcePerimeterSpacing=0;" edge="1" parent="eNKYxBsOCk_GWGlPTTgq-1" source="eNKYxBsOCk_GWGlPTTgq-62" target="eNKYxBsOCk_GWGlPTTgq-7">
                    <mxGeometry relative="1" as="geometry"/>
                </mxCell>
                <mxCell id="eNKYxBsOCk_GWGlPTTgq-65" style="edgeStyle=none;html=1;startArrow=none;startFill=0;endArrow=open;endFill=0;sourcePerimeterSpacing=0;" edge="1" parent="eNKYxBsOCk_GWGlPTTgq-1" source="eNKYxBsOCk_GWGlPTTgq-62" target="eNKYxBsOCk_GWGlPTTgq-3">
                    <mxGeometry relative="1" as="geometry">
                        <Array as="points">
                            <mxPoint x="580" y="400"/>
                            <mxPoint x="580" y="450"/>
                            <mxPoint x="820" y="450"/>
                            <mxPoint x="820" y="300"/>
                        </Array>
                    </mxGeometry>
                </mxCell>
                <mxCell id="eNKYxBsOCk_GWGlPTTgq-62" value="Sesión" style="rhombus;whiteSpace=wrap;html=1;" vertex="1" parent="eNKYxBsOCk_GWGlPTTgq-1">
                    <mxGeometry x="450" y="370" width="60" height="60" as="geometry"/>
                </mxCell>
                <mxCell id="eNKYxBsOCk_GWGlPTTgq-70" style="edgeStyle=none;html=1;startArrow=none;startFill=0;endArrow=open;endFill=0;sourcePerimeterSpacing=0;" edge="1" parent="eNKYxBsOCk_GWGlPTTgq-1" source="eNKYxBsOCk_GWGlPTTgq-66" target="eNKYxBsOCk_GWGlPTTgq-67">
                    <mxGeometry relative="1" as="geometry"/>
                </mxCell>
                <mxCell id="eNKYxBsOCk_GWGlPTTgq-72" style="edgeStyle=none;html=1;startArrow=none;startFill=0;endArrow=open;endFill=0;sourcePerimeterSpacing=0;" edge="1" parent="eNKYxBsOCk_GWGlPTTgq-1" source="eNKYxBsOCk_GWGlPTTgq-66" target="eNKYxBsOCk_GWGlPTTgq-3">
                    <mxGeometry relative="1" as="geometry">
                        <Array as="points">
                            <mxPoint x="1030" y="400"/>
                            <mxPoint x="1030" y="300"/>
                        </Array>
                    </mxGeometry>
                </mxCell>
                <mxCell id="eNKYxBsOCk_GWGlPTTgq-66" value="Sesión" style="rhombus;whiteSpace=wrap;html=1;" vertex="1" parent="eNKYxBsOCk_GWGlPTTgq-1">
                    <mxGeometry x="890" y="370" width="60" height="60" as="geometry"/>
                </mxCell>
                <mxCell id="eNKYxBsOCk_GWGlPTTgq-68" style="edgeStyle=none;html=1;startArrow=none;startFill=0;endArrow=open;endFill=0;sourcePerimeterSpacing=0;" edge="1" parent="eNKYxBsOCk_GWGlPTTgq-1" source="eNKYxBsOCk_GWGlPTTgq-67" target="eNKYxBsOCk_GWGlPTTgq-7">
                    <mxGeometry relative="1" as="geometry">
                        <mxPoint x="580" y="610" as="targetPoint"/>
                        <Array as="points"/>
                    </mxGeometry>
                </mxCell>
                <mxCell id="eNKYxBsOCk_GWGlPTTgq-71" style="edgeStyle=none;html=1;startArrow=none;startFill=0;endArrow=open;endFill=0;sourcePerimeterSpacing=0;" edge="1" parent="eNKYxBsOCk_GWGlPTTgq-1" source="eNKYxBsOCk_GWGlPTTgq-67" target="eNKYxBsOCk_GWGlPTTgq-8">
                    <mxGeometry relative="1" as="geometry"/>
                </mxCell>
                <mxCell id="eNKYxBsOCk_GWGlPTTgq-67" value="Comenta" style="rhombus;whiteSpace=wrap;html=1;" vertex="1" parent="eNKYxBsOCk_GWGlPTTgq-1">
                    <mxGeometry x="890" y="470" width="60" height="60" as="geometry"/>
                </mxCell>
                <mxCell id="eNKYxBsOCk_GWGlPTTgq-69" style="edgeStyle=none;html=1;startArrow=none;startFill=0;endArrow=open;endFill=0;sourcePerimeterSpacing=0;" edge="1" parent="eNKYxBsOCk_GWGlPTTgq-1" source="eNKYxBsOCk_GWGlPTTgq-3" target="eNKYxBsOCk_GWGlPTTgq-66">
                    <mxGeometry relative="1" as="geometry"/>
                </mxCell>
                <mxCell id="eNKYxBsOCk_GWGlPTTgq-73" style="edgeStyle=none;html=1;startArrow=none;startFill=0;endArrow=open;endFill=0;sourcePerimeterSpacing=0;" edge="1" parent="eNKYxBsOCk_GWGlPTTgq-1" source="eNKYxBsOCk_GWGlPTTgq-4" target="eNKYxBsOCk_GWGlPTTgq-8">
                    <mxGeometry relative="1" as="geometry">
                        <mxPoint x="720" y="610" as="targetPoint"/>
                        <Array as="points">
                            <mxPoint x="720" y="610"/>
                        </Array>
                    </mxGeometry>
                </mxCell>
                <mxCell id="eNKYxBsOCk_GWGlPTTgq-87" value="" style="edgeStyle=none;html=1;startArrow=none;startFill=0;endArrow=open;endFill=0;sourcePerimeterSpacing=0;" edge="1" parent="eNKYxBsOCk_GWGlPTTgq-1" source="eNKYxBsOCk_GWGlPTTgq-74" target="eNKYxBsOCk_GWGlPTTgq-86">
                    <mxGeometry relative="1" as="geometry"/>
                </mxCell>
                <mxCell id="eNKYxBsOCk_GWGlPTTgq-74" value="Usuario" style="rhombus;whiteSpace=wrap;html=1;" vertex="1" parent="eNKYxBsOCk_GWGlPTTgq-1">
                    <mxGeometry x="640" y="720" width="60" height="60" as="geometry"/>
                </mxCell>
                <mxCell id="eNKYxBsOCk_GWGlPTTgq-76" value="Que y cómo lo hacemos" style="rounded=0;whiteSpace=wrap;html=1;" vertex="1" parent="eNKYxBsOCk_GWGlPTTgq-1">
                    <mxGeometry x="140" y="270" width="120" height="60" as="geometry"/>
                </mxCell>
                <mxCell id="eNKYxBsOCk_GWGlPTTgq-80" style="edgeStyle=none;html=1;startArrow=none;startFill=0;endArrow=open;endFill=0;sourcePerimeterSpacing=0;" edge="1" parent="eNKYxBsOCk_GWGlPTTgq-1" source="eNKYxBsOCk_GWGlPTTgq-78" target="eNKYxBsOCk_GWGlPTTgq-6">
                    <mxGeometry relative="1" as="geometry">
                        <Array as="points">
                            <mxPoint x="380" y="620"/>
                            <mxPoint x="380" y="300"/>
                        </Array>
                    </mxGeometry>
                </mxCell>
                <mxCell id="eNKYxBsOCk_GWGlPTTgq-78" value="Enviar comentario" style="rounded=1;whiteSpace=wrap;html=1;" vertex="1" parent="eNKYxBsOCk_GWGlPTTgq-1">
                    <mxGeometry x="420" y="590" width="120" height="60" as="geometry"/>
                </mxCell>
                <mxCell id="eNKYxBsOCk_GWGlPTTgq-79" style="edgeStyle=none;html=1;startArrow=none;startFill=0;endArrow=open;endFill=0;sourcePerimeterSpacing=0;" edge="1" parent="eNKYxBsOCk_GWGlPTTgq-1" source="eNKYxBsOCk_GWGlPTTgq-7" target="eNKYxBsOCk_GWGlPTTgq-78">
                    <mxGeometry relative="1" as="geometry"/>
                </mxCell>
                <mxCell id="eNKYxBsOCk_GWGlPTTgq-84" style="edgeStyle=none;html=1;startArrow=none;startFill=0;endArrow=open;endFill=0;sourcePerimeterSpacing=0;" edge="1" parent="eNKYxBsOCk_GWGlPTTgq-1" source="eNKYxBsOCk_GWGlPTTgq-82" target="eNKYxBsOCk_GWGlPTTgq-4">
                    <mxGeometry relative="1" as="geometry">
                        <Array as="points">
                            <mxPoint x="820" y="250"/>
                            <mxPoint x="720" y="250"/>
                        </Array>
                    </mxGeometry>
                </mxCell>
                <mxCell id="eNKYxBsOCk_GWGlPTTgq-85" style="edgeStyle=none;html=1;startArrow=none;startFill=0;endArrow=open;endFill=0;sourcePerimeterSpacing=0;" edge="1" parent="eNKYxBsOCk_GWGlPTTgq-1" source="eNKYxBsOCk_GWGlPTTgq-82" target="eNKYxBsOCk_GWGlPTTgq-3">
                    <mxGeometry relative="1" as="geometry">
                        <Array as="points">
                            <mxPoint x="820" y="250"/>
                            <mxPoint x="920" y="250"/>
                        </Array>
                    </mxGeometry>
                </mxCell>
                <mxCell id="eNKYxBsOCk_GWGlPTTgq-97" style="edgeStyle=none;html=1;startArrow=none;startFill=0;endArrow=open;endFill=0;sourcePerimeterSpacing=0;" edge="1" parent="eNKYxBsOCk_GWGlPTTgq-1" source="eNKYxBsOCk_GWGlPTTgq-82" target="eNKYxBsOCk_GWGlPTTgq-101">
                    <mxGeometry relative="1" as="geometry">
                        <mxPoint x="1190" y="270" as="targetPoint"/>
                        <Array as="points">
                            <mxPoint x="820" y="250"/>
                            <mxPoint x="1190" y="250"/>
                        </Array>
                    </mxGeometry>
                </mxCell>
                <mxCell id="eNKYxBsOCk_GWGlPTTgq-82" value="Área del cliente" style="rounded=0;whiteSpace=wrap;html=1;" vertex="1" parent="eNKYxBsOCk_GWGlPTTgq-1">
                    <mxGeometry x="760" y="160" width="120" height="60" as="geometry"/>
                </mxCell>
                <mxCell id="eNKYxBsOCk_GWGlPTTgq-86" value="" style="whiteSpace=wrap;html=1;" vertex="1" parent="eNKYxBsOCk_GWGlPTTgq-1">
                    <mxGeometry x="390" y="720" width="120" height="60" as="geometry"/>
                </mxCell>
                <mxCell id="eNKYxBsOCk_GWGlPTTgq-88" value="" style="whiteSpace=wrap;html=1;" vertex="1" parent="eNKYxBsOCk_GWGlPTTgq-1">
                    <mxGeometry x="610" y="900" width="120" height="60" as="geometry"/>
                </mxCell>
                <mxCell id="eNKYxBsOCk_GWGlPTTgq-90" value="Si" style="text;html=1;strokeColor=none;fillColor=none;align=center;verticalAlign=middle;whiteSpace=wrap;rounded=0;" vertex="1" parent="eNKYxBsOCk_GWGlPTTgq-1">
                    <mxGeometry x="480" y="430" width="20" height="20" as="geometry"/>
                </mxCell>
                <mxCell id="eNKYxBsOCk_GWGlPTTgq-92" value="No" style="text;html=1;strokeColor=none;fillColor=none;align=center;verticalAlign=middle;whiteSpace=wrap;rounded=0;" vertex="1" parent="eNKYxBsOCk_GWGlPTTgq-1">
                    <mxGeometry x="510" y="380" width="20" height="20" as="geometry"/>
                </mxCell>
                <mxCell id="eNKYxBsOCk_GWGlPTTgq-93" value="No" style="text;html=1;strokeColor=none;fillColor=none;align=center;verticalAlign=middle;whiteSpace=wrap;rounded=0;" vertex="1" parent="eNKYxBsOCk_GWGlPTTgq-1">
                    <mxGeometry x="950" y="380" width="20" height="20" as="geometry"/>
                </mxCell>
                <mxCell id="eNKYxBsOCk_GWGlPTTgq-94" value="Si" style="text;html=1;strokeColor=none;fillColor=none;align=center;verticalAlign=middle;whiteSpace=wrap;rounded=0;" vertex="1" parent="eNKYxBsOCk_GWGlPTTgq-1">
                    <mxGeometry x="920" y="430" width="20" height="20" as="geometry"/>
                </mxCell>
                <mxCell id="eNKYxBsOCk_GWGlPTTgq-98" value="" style="group" vertex="1" connectable="0" parent="eNKYxBsOCk_GWGlPTTgq-1">
                    <mxGeometry x="1440" y="365" width="120" height="60" as="geometry"/>
                </mxCell>
                <mxCell id="eNKYxBsOCk_GWGlPTTgq-99" value="Nueva contraseña" style="rounded=0;whiteSpace=wrap;html=1;" vertex="1" parent="eNKYxBsOCk_GWGlPTTgq-98">
                    <mxGeometry width="120" height="60" as="geometry"/>
                </mxCell>
                <mxCell id="eNKYxBsOCk_GWGlPTTgq-100" value="" style="sketch=0;pointerEvents=1;shadow=0;dashed=0;html=1;strokeColor=none;fillColor=#505050;labelPosition=center;verticalLabelPosition=bottom;verticalAlign=top;outlineConnect=0;align=center;shape=mxgraph.office.concepts.form;" vertex="1" parent="eNKYxBsOCk_GWGlPTTgq-98">
                    <mxGeometry width="22.86" height="20" as="geometry"/>
                </mxCell>
                <mxCell id="eNKYxBsOCk_GWGlPTTgq-151" style="edgeStyle=none;html=1;startArrow=none;startFill=0;endArrow=open;endFill=0;sourcePerimeterSpacing=0;" edge="1" parent="eNKYxBsOCk_GWGlPTTgq-1" source="eNKYxBsOCk_GWGlPTTgq-101" target="eNKYxBsOCk_GWGlPTTgq-150">
                    <mxGeometry relative="1" as="geometry"/>
                </mxCell>
                <mxCell id="eNKYxBsOCk_GWGlPTTgq-101" value="Cambiar contraseña" style="rounded=1;whiteSpace=wrap;html=1;" vertex="1" parent="eNKYxBsOCk_GWGlPTTgq-1">
                    <mxGeometry x="1130" y="270" width="120" height="60" as="geometry"/>
                </mxCell>
                <mxCell id="eNKYxBsOCk_GWGlPTTgq-105" style="edgeStyle=none;html=1;startArrow=none;startFill=0;endArrow=open;endFill=0;sourcePerimeterSpacing=0;" edge="1" parent="eNKYxBsOCk_GWGlPTTgq-1" source="eNKYxBsOCk_GWGlPTTgq-103" target="eNKYxBsOCk_GWGlPTTgq-3">
                    <mxGeometry relative="1" as="geometry">
                        <Array as="points">
                            <mxPoint x="1080" y="545"/>
                            <mxPoint x="1080" y="300"/>
                        </Array>
                    </mxGeometry>
                </mxCell>
                <mxCell id="eNKYxBsOCk_GWGlPTTgq-103" value="Establecer contraseña" style="rounded=1;whiteSpace=wrap;html=1;" vertex="1" parent="eNKYxBsOCk_GWGlPTTgq-1">
                    <mxGeometry x="1440" y="515" width="120" height="60" as="geometry"/>
                </mxCell>
                <mxCell id="eNKYxBsOCk_GWGlPTTgq-104" style="edgeStyle=none;html=1;startArrow=none;startFill=0;endArrow=open;endFill=0;sourcePerimeterSpacing=0;" edge="1" parent="eNKYxBsOCk_GWGlPTTgq-1" source="eNKYxBsOCk_GWGlPTTgq-99" target="eNKYxBsOCk_GWGlPTTgq-103">
                    <mxGeometry relative="1" as="geometry"/>
                </mxCell>
                <mxCell id="eNKYxBsOCk_GWGlPTTgq-108" value="- Usuario&lt;br&gt;- Contraseña" style="text;html=1;strokeColor=none;fillColor=none;align=left;verticalAlign=middle;whiteSpace=wrap;rounded=0;" vertex="1" parent="eNKYxBsOCk_GWGlPTTgq-1">
                    <mxGeometry x="920" y="330" width="120" height="30" as="geometry"/>
                </mxCell>
                <mxCell id="eNKYxBsOCk_GWGlPTTgq-109" value="- Nombre&lt;br&gt;- Apellido&lt;br&gt;- Correo&lt;br&gt;- Contraseña&lt;br&gt;- Tipo de usuario" style="text;html=1;strokeColor=none;fillColor=none;align=left;verticalAlign=middle;whiteSpace=wrap;rounded=0;" vertex="1" parent="eNKYxBsOCk_GWGlPTTgq-1">
                    <mxGeometry x="720" y="315" width="120" height="110" as="geometry"/>
                </mxCell>
                <mxCell id="eNKYxBsOCk_GWGlPTTgq-110" value="- Nueva contraseña&lt;br&gt;- Repetir Contraseña" style="text;html=1;strokeColor=none;fillColor=none;align=left;verticalAlign=middle;whiteSpace=wrap;rounded=0;" vertex="1" parent="eNKYxBsOCk_GWGlPTTgq-1">
                    <mxGeometry x="1500" y="425" width="120" height="30" as="geometry"/>
                </mxCell>
                <mxCell id="eNKYxBsOCk_GWGlPTTgq-111" value="- Comentario" style="text;html=1;strokeColor=none;fillColor=none;align=left;verticalAlign=middle;whiteSpace=wrap;rounded=0;" vertex="1" parent="eNKYxBsOCk_GWGlPTTgq-1">
                    <mxGeometry x="480" y="530" width="120" height="30" as="geometry"/>
                </mxCell>
                <mxCell id="eNKYxBsOCk_GWGlPTTgq-112" value="" style="group" vertex="1" connectable="0" parent="eNKYxBsOCk_GWGlPTTgq-1">
                    <mxGeometry x="230" y="160" width="120" height="60" as="geometry"/>
                </mxCell>
                <mxCell id="eNKYxBsOCk_GWGlPTTgq-113" value="Contacto" style="rounded=0;whiteSpace=wrap;html=1;" vertex="1" parent="eNKYxBsOCk_GWGlPTTgq-112">
                    <mxGeometry width="120" height="60" as="geometry"/>
                </mxCell>
                <mxCell id="eNKYxBsOCk_GWGlPTTgq-114" value="" style="sketch=0;pointerEvents=1;shadow=0;dashed=0;html=1;strokeColor=none;fillColor=#505050;labelPosition=center;verticalLabelPosition=bottom;verticalAlign=top;outlineConnect=0;align=center;shape=mxgraph.office.concepts.form;" vertex="1" parent="eNKYxBsOCk_GWGlPTTgq-112">
                    <mxGeometry width="22.86" height="20" as="geometry"/>
                </mxCell>
                <mxCell id="eNKYxBsOCk_GWGlPTTgq-117" style="edgeStyle=none;html=1;startArrow=none;startFill=0;endArrow=open;endFill=0;sourcePerimeterSpacing=0;" edge="1" parent="eNKYxBsOCk_GWGlPTTgq-1" source="eNKYxBsOCk_GWGlPTTgq-115" target="eNKYxBsOCk_GWGlPTTgq-113">
                    <mxGeometry relative="1" as="geometry"/>
                </mxCell>
                <mxCell id="eNKYxBsOCk_GWGlPTTgq-115" value="Enviar mensaje" style="rounded=1;whiteSpace=wrap;html=1;" vertex="1" parent="eNKYxBsOCk_GWGlPTTgq-1">
                    <mxGeometry x="230" y="365" width="120" height="60" as="geometry"/>
                </mxCell>
                <mxCell id="eNKYxBsOCk_GWGlPTTgq-116" style="edgeStyle=none;html=1;startArrow=none;startFill=0;endArrow=open;endFill=0;sourcePerimeterSpacing=0;" edge="1" parent="eNKYxBsOCk_GWGlPTTgq-1" source="eNKYxBsOCk_GWGlPTTgq-113" target="eNKYxBsOCk_GWGlPTTgq-115">
                    <mxGeometry relative="1" as="geometry"/>
                </mxCell>
                <mxCell id="eNKYxBsOCk_GWGlPTTgq-118" value="- Nombre&lt;br&gt;- Apellido&lt;br&gt;- Correo&lt;br&gt;- Asunto&lt;br&gt;- Mensaje" style="text;html=1;strokeColor=none;fillColor=none;align=left;verticalAlign=middle;whiteSpace=wrap;rounded=0;" vertex="1" parent="eNKYxBsOCk_GWGlPTTgq-1">
                    <mxGeometry x="292" y="220" width="120" height="80" as="geometry"/>
                </mxCell>
                <mxCell id="eNKYxBsOCk_GWGlPTTgq-134" style="edgeStyle=none;html=1;startArrow=none;startFill=0;endArrow=open;endFill=0;sourcePerimeterSpacing=0;" edge="1" parent="eNKYxBsOCk_GWGlPTTgq-1" source="eNKYxBsOCk_GWGlPTTgq-120" target="eNKYxBsOCk_GWGlPTTgq-133">
                    <mxGeometry relative="1" as="geometry"/>
                </mxCell>
                <mxCell id="eNKYxBsOCk_GWGlPTTgq-120" value="Curso" style="whiteSpace=wrap;html=1;" vertex="1" parent="eNKYxBsOCk_GWGlPTTgq-1">
                    <mxGeometry x="1330" y="720" width="120" height="60" as="geometry"/>
                </mxCell>
                <mxCell id="eNKYxBsOCk_GWGlPTTgq-121" style="edgeStyle=none;html=1;startArrow=none;startFill=0;endArrow=open;endFill=0;sourcePerimeterSpacing=0;" edge="1" parent="eNKYxBsOCk_GWGlPTTgq-1" source="eNKYxBsOCk_GWGlPTTgq-8" target="eNKYxBsOCk_GWGlPTTgq-120">
                    <mxGeometry relative="1" as="geometry">
                        <Array as="points">
                            <mxPoint x="920" y="670"/>
                            <mxPoint x="1160" y="670"/>
                            <mxPoint x="1390" y="670"/>
                        </Array>
                    </mxGeometry>
                </mxCell>
                <mxCell id="eNKYxBsOCk_GWGlPTTgq-122" value="Si" style="text;html=1;strokeColor=none;fillColor=none;align=center;verticalAlign=middle;whiteSpace=wrap;rounded=0;" vertex="1" parent="eNKYxBsOCk_GWGlPTTgq-1">
                    <mxGeometry x="870" y="480" width="20" height="20" as="geometry"/>
                </mxCell>
                <mxCell id="eNKYxBsOCk_GWGlPTTgq-123" value="No" style="text;html=1;strokeColor=none;fillColor=none;align=center;verticalAlign=middle;whiteSpace=wrap;rounded=0;" vertex="1" parent="eNKYxBsOCk_GWGlPTTgq-1">
                    <mxGeometry x="920" y="530" width="20" height="20" as="geometry"/>
                </mxCell>
                <mxCell id="eNKYxBsOCk_GWGlPTTgq-148" style="edgeStyle=none;html=1;startArrow=none;startFill=0;endArrow=open;endFill=0;sourcePerimeterSpacing=0;" edge="1" parent="eNKYxBsOCk_GWGlPTTgq-1" source="eNKYxBsOCk_GWGlPTTgq-125" target="eNKYxBsOCk_GWGlPTTgq-146">
                    <mxGeometry relative="1" as="geometry"/>
                </mxCell>
                <mxCell id="eNKYxBsOCk_GWGlPTTgq-149" style="edgeStyle=none;html=1;startArrow=none;startFill=0;endArrow=open;endFill=0;sourcePerimeterSpacing=0;" edge="1" parent="eNKYxBsOCk_GWGlPTTgq-1" source="eNKYxBsOCk_GWGlPTTgq-125" target="eNKYxBsOCk_GWGlPTTgq-101">
                    <mxGeometry relative="1" as="geometry">
                        <Array as="points">
                            <mxPoint x="1770" y="780"/>
                            <mxPoint x="1880" y="780"/>
                            <mxPoint x="1880" y="300"/>
                        </Array>
                    </mxGeometry>
                </mxCell>
                <mxCell id="eNKYxBsOCk_GWGlPTTgq-125" value="Perfil de usuario" style="whiteSpace=wrap;html=1;" vertex="1" parent="eNKYxBsOCk_GWGlPTTgq-1">
                    <mxGeometry x="1710" y="720" width="120" height="60" as="geometry"/>
                </mxCell>
                <mxCell id="eNKYxBsOCk_GWGlPTTgq-138" style="edgeStyle=none;html=1;startArrow=none;startFill=0;endArrow=open;endFill=0;sourcePerimeterSpacing=0;" edge="1" parent="eNKYxBsOCk_GWGlPTTgq-1" source="eNKYxBsOCk_GWGlPTTgq-126" target="eNKYxBsOCk_GWGlPTTgq-120">
                    <mxGeometry relative="1" as="geometry">
                        <Array as="points">
                            <mxPoint x="1300" y="1020"/>
                            <mxPoint x="1300" y="750"/>
                        </Array>
                    </mxGeometry>
                </mxCell>
                <mxCell id="eNKYxBsOCk_GWGlPTTgq-126" value="Resultados evaluación MBTI" style="whiteSpace=wrap;html=1;" vertex="1" parent="eNKYxBsOCk_GWGlPTTgq-1">
                    <mxGeometry x="1330" y="990" width="120" height="60" as="geometry"/>
                </mxCell>
                <mxCell id="eNKYxBsOCk_GWGlPTTgq-131" style="edgeStyle=none;html=1;startArrow=none;startFill=0;endArrow=none;endFill=0;sourcePerimeterSpacing=0;dashed=1;" edge="1" parent="eNKYxBsOCk_GWGlPTTgq-1" source="eNKYxBsOCk_GWGlPTTgq-128" target="eNKYxBsOCk_GWGlPTTgq-8">
                    <mxGeometry relative="1" as="geometry"/>
                </mxCell>
                <mxCell id="eNKYxBsOCk_GWGlPTTgq-128" value="- Estado del proceso&lt;br&gt;- Opciones de acceso a los demás recursos" style="shape=note;size=15;align=left;spacingLeft=10;html=1;whiteSpace=wrap;" vertex="1" parent="eNKYxBsOCk_GWGlPTTgq-1">
                    <mxGeometry x="1070" y="580" width="150" height="60" as="geometry"/>
                </mxCell>
                <mxCell id="eNKYxBsOCk_GWGlPTTgq-132" value="Facturación" style="whiteSpace=wrap;html=1;" vertex="1" parent="eNKYxBsOCk_GWGlPTTgq-1">
                    <mxGeometry x="1130" y="720" width="120" height="60" as="geometry"/>
                </mxCell>
                <mxCell id="eNKYxBsOCk_GWGlPTTgq-135" style="edgeStyle=none;html=1;startArrow=none;startFill=0;endArrow=open;endFill=0;sourcePerimeterSpacing=0;" edge="1" parent="eNKYxBsOCk_GWGlPTTgq-1" source="eNKYxBsOCk_GWGlPTTgq-133" target="eNKYxBsOCk_GWGlPTTgq-126">
                    <mxGeometry relative="1" as="geometry"/>
                </mxCell>
                <mxCell id="eNKYxBsOCk_GWGlPTTgq-140" value="" style="edgeStyle=none;html=1;startArrow=none;startFill=0;endArrow=open;endFill=0;sourcePerimeterSpacing=0;" edge="1" parent="eNKYxBsOCk_GWGlPTTgq-1" source="eNKYxBsOCk_GWGlPTTgq-133" target="eNKYxBsOCk_GWGlPTTgq-139">
                    <mxGeometry relative="1" as="geometry"/>
                </mxCell>
                <mxCell id="eNKYxBsOCk_GWGlPTTgq-133" value="Estado curso" style="rhombus;whiteSpace=wrap;html=1;" vertex="1" parent="eNKYxBsOCk_GWGlPTTgq-1">
                    <mxGeometry x="1360" y="860" width="60" height="60" as="geometry"/>
                </mxCell>
                <mxCell id="eNKYxBsOCk_GWGlPTTgq-137" value="Mitad" style="text;html=1;strokeColor=none;fillColor=none;align=center;verticalAlign=middle;whiteSpace=wrap;rounded=0;" vertex="1" parent="eNKYxBsOCk_GWGlPTTgq-1">
                    <mxGeometry x="1390" y="920" width="50" height="20" as="geometry"/>
                </mxCell>
                <mxCell id="eNKYxBsOCk_GWGlPTTgq-144" style="edgeStyle=none;html=1;startArrow=none;startFill=0;endArrow=open;endFill=0;sourcePerimeterSpacing=0;" edge="1" parent="eNKYxBsOCk_GWGlPTTgq-1" source="eNKYxBsOCk_GWGlPTTgq-139" target="eNKYxBsOCk_GWGlPTTgq-143">
                    <mxGeometry relative="1" as="geometry"/>
                </mxCell>
                <mxCell id="eNKYxBsOCk_GWGlPTTgq-139" value="Evaluación Final" style="whiteSpace=wrap;html=1;" vertex="1" parent="eNKYxBsOCk_GWGlPTTgq-1">
                    <mxGeometry x="1490" y="860" width="120" height="60" as="geometry"/>
                </mxCell>
                <mxCell id="eNKYxBsOCk_GWGlPTTgq-141" value="Final" style="text;html=1;strokeColor=none;fillColor=none;align=center;verticalAlign=middle;whiteSpace=wrap;rounded=0;" vertex="1" parent="eNKYxBsOCk_GWGlPTTgq-1">
                    <mxGeometry x="1420" y="870" width="50" height="20" as="geometry"/>
                </mxCell>
                <mxCell id="eNKYxBsOCk_GWGlPTTgq-143" value="Certificado" style="whiteSpace=wrap;html=1;" vertex="1" parent="eNKYxBsOCk_GWGlPTTgq-1">
                    <mxGeometry x="1490" y="990" width="120" height="60" as="geometry"/>
                </mxCell>
                <mxCell id="eNKYxBsOCk_GWGlPTTgq-162" style="edgeStyle=none;html=1;startArrow=none;startFill=0;endArrow=open;endFill=0;sourcePerimeterSpacing=0;" edge="1" parent="eNKYxBsOCk_GWGlPTTgq-1" source="eNKYxBsOCk_GWGlPTTgq-146" target="eNKYxBsOCk_GWGlPTTgq-166">
                    <mxGeometry relative="1" as="geometry">
                        <mxPoint x="1920" y="850" as="targetPoint"/>
                    </mxGeometry>
                </mxCell>
                <mxCell id="eNKYxBsOCk_GWGlPTTgq-146" value="Editar perfil" style="rounded=1;whiteSpace=wrap;html=1;" vertex="1" parent="eNKYxBsOCk_GWGlPTTgq-1">
                    <mxGeometry x="1710" y="820" width="120" height="60" as="geometry"/>
                </mxCell>
                <mxCell id="eNKYxBsOCk_GWGlPTTgq-152" style="edgeStyle=none;html=1;startArrow=none;startFill=0;endArrow=open;endFill=0;sourcePerimeterSpacing=0;" edge="1" parent="eNKYxBsOCk_GWGlPTTgq-1" source="eNKYxBsOCk_GWGlPTTgq-150" target="eNKYxBsOCk_GWGlPTTgq-99">
                    <mxGeometry relative="1" as="geometry"/>
                </mxCell>
                <mxCell id="eNKYxBsOCk_GWGlPTTgq-158" style="edgeStyle=none;html=1;startArrow=none;startFill=0;endArrow=open;endFill=0;sourcePerimeterSpacing=0;" edge="1" parent="eNKYxBsOCk_GWGlPTTgq-1" source="eNKYxBsOCk_GWGlPTTgq-150" target="eNKYxBsOCk_GWGlPTTgq-153">
                    <mxGeometry relative="1" as="geometry"/>
                </mxCell>
                <mxCell id="eNKYxBsOCk_GWGlPTTgq-150" value="Sesión" style="rhombus;whiteSpace=wrap;html=1;" vertex="1" parent="eNKYxBsOCk_GWGlPTTgq-1">
                    <mxGeometry x="1160" y="365" width="60" height="60" as="geometry"/>
                </mxCell>
                <mxCell id="eNKYxBsOCk_GWGlPTTgq-157" value="" style="group" vertex="1" connectable="0" parent="eNKYxBsOCk_GWGlPTTgq-1">
                    <mxGeometry x="1130" y="460" width="120" height="60" as="geometry"/>
                </mxCell>
                <mxCell id="eNKYxBsOCk_GWGlPTTgq-153" value="Generar enlace recuperación" style="rounded=1;whiteSpace=wrap;html=1;" vertex="1" parent="eNKYxBsOCk_GWGlPTTgq-157">
                    <mxGeometry width="120" height="60" as="geometry"/>
                </mxCell>
                <mxCell id="eNKYxBsOCk_GWGlPTTgq-154" value="" style="sketch=0;pointerEvents=1;shadow=0;dashed=0;html=1;strokeColor=none;labelPosition=center;verticalLabelPosition=bottom;verticalAlign=top;align=center;fillColor=#515151;shape=mxgraph.mscae.system_center.roles" vertex="1" parent="eNKYxBsOCk_GWGlPTTgq-157">
                    <mxGeometry width="20" height="20" as="geometry"/>
                </mxCell>
                <mxCell id="eNKYxBsOCk_GWGlPTTgq-159" style="edgeStyle=none;html=1;startArrow=none;startFill=0;endArrow=open;endFill=0;sourcePerimeterSpacing=0;" edge="1" parent="eNKYxBsOCk_GWGlPTTgq-1" source="eNKYxBsOCk_GWGlPTTgq-153" target="eNKYxBsOCk_GWGlPTTgq-99">
                    <mxGeometry relative="1" as="geometry">
                        <Array as="points">
                            <mxPoint x="1330" y="490"/>
                            <mxPoint x="1330" y="395"/>
                        </Array>
                    </mxGeometry>
                </mxCell>
                <mxCell id="eNKYxBsOCk_GWGlPTTgq-160" value="Si" style="text;html=1;strokeColor=none;fillColor=none;align=center;verticalAlign=middle;whiteSpace=wrap;rounded=0;" vertex="1" parent="eNKYxBsOCk_GWGlPTTgq-1">
                    <mxGeometry x="1220" y="374" width="20" height="20" as="geometry"/>
                </mxCell>
                <mxCell id="eNKYxBsOCk_GWGlPTTgq-161" value="No" style="text;html=1;strokeColor=none;fillColor=none;align=center;verticalAlign=middle;whiteSpace=wrap;rounded=0;" vertex="1" parent="eNKYxBsOCk_GWGlPTTgq-1">
                    <mxGeometry x="1192" y="423" width="20" height="20" as="geometry"/>
                </mxCell>
                <mxCell id="eNKYxBsOCk_GWGlPTTgq-165" value="" style="group" vertex="1" connectable="0" parent="eNKYxBsOCk_GWGlPTTgq-1">
                    <mxGeometry x="1890" y="820" width="120" height="60" as="geometry"/>
                </mxCell>
                <mxCell id="eNKYxBsOCk_GWGlPTTgq-166" value="Perfil de usuario" style="rounded=0;whiteSpace=wrap;html=1;" vertex="1" parent="eNKYxBsOCk_GWGlPTTgq-165">
                    <mxGeometry width="120" height="60" as="geometry"/>
                </mxCell>
                <mxCell id="eNKYxBsOCk_GWGlPTTgq-167" value="" style="sketch=0;pointerEvents=1;shadow=0;dashed=0;html=1;strokeColor=none;fillColor=#505050;labelPosition=center;verticalLabelPosition=bottom;verticalAlign=top;outlineConnect=0;align=center;shape=mxgraph.office.concepts.form;" vertex="1" parent="eNKYxBsOCk_GWGlPTTgq-165">
                    <mxGeometry width="22.86" height="20" as="geometry"/>
                </mxCell>
                <mxCell id="eNKYxBsOCk_GWGlPTTgq-170" style="edgeStyle=none;html=1;startArrow=none;startFill=0;endArrow=open;endFill=0;sourcePerimeterSpacing=0;" edge="1" parent="eNKYxBsOCk_GWGlPTTgq-1" source="eNKYxBsOCk_GWGlPTTgq-168" target="eNKYxBsOCk_GWGlPTTgq-125">
                    <mxGeometry relative="1" as="geometry">
                        <Array as="points">
                            <mxPoint x="2130" y="750"/>
                        </Array>
                    </mxGeometry>
                </mxCell>
                <mxCell id="eNKYxBsOCk_GWGlPTTgq-168" value="Guardar cambios" style="rounded=1;whiteSpace=wrap;html=1;" vertex="1" parent="eNKYxBsOCk_GWGlPTTgq-1">
                    <mxGeometry x="2070" y="820" width="120" height="60" as="geometry"/>
                </mxCell>
                <mxCell id="eNKYxBsOCk_GWGlPTTgq-169" style="edgeStyle=none;html=1;startArrow=none;startFill=0;endArrow=open;endFill=0;sourcePerimeterSpacing=0;" edge="1" parent="eNKYxBsOCk_GWGlPTTgq-1" source="eNKYxBsOCk_GWGlPTTgq-166" target="eNKYxBsOCk_GWGlPTTgq-168">
                    <mxGeometry relative="1" as="geometry"/>
                </mxCell>
                <mxCell id="eNKYxBsOCk_GWGlPTTgq-171" value="- Nombre&lt;br&gt;- Apellido&lt;br&gt;- Correo&lt;br&gt;- Dirección&lt;br&gt;- Teléfono&lt;br&gt;- Foto de perfil" style="text;html=1;strokeColor=none;fillColor=none;align=left;verticalAlign=middle;whiteSpace=wrap;rounded=0;" vertex="1" parent="eNKYxBsOCk_GWGlPTTgq-1">
                    <mxGeometry x="1950" y="880" width="120" height="100" as="geometry"/>
                </mxCell>
                <mxCell id="eNKYxBsOCk_GWGlPTTgq-174" style="edgeStyle=none;html=1;startArrow=none;startFill=0;endArrow=open;endFill=0;sourcePerimeterSpacing=0;" edge="1" parent="eNKYxBsOCk_GWGlPTTgq-1" source="eNKYxBsOCk_GWGlPTTgq-172" target="eNKYxBsOCk_GWGlPTTgq-2">
                    <mxGeometry relative="1" as="geometry">
                        <Array as="points">
                            <mxPoint x="1680" y="750"/>
                            <mxPoint x="1680" y="70"/>
                        </Array>
                    </mxGeometry>
                </mxCell>
                <mxCell id="eNKYxBsOCk_GWGlPTTgq-172" value="Cerrar sesión" style="rounded=1;whiteSpace=wrap;html=1;" vertex="1" parent="eNKYxBsOCk_GWGlPTTgq-1">
                    <mxGeometry x="1520" y="720" width="120" height="60" as="geometry"/>
                </mxCell>
                <mxCell id="eNKYxBsOCk_GWGlPTTgq-173" style="edgeStyle=none;html=1;startArrow=none;startFill=0;endArrow=open;endFill=0;sourcePerimeterSpacing=0;" edge="1" parent="eNKYxBsOCk_GWGlPTTgq-1" source="eNKYxBsOCk_GWGlPTTgq-8" target="eNKYxBsOCk_GWGlPTTgq-172">
                    <mxGeometry relative="1" as="geometry">
                        <Array as="points">
                            <mxPoint x="920" y="670"/>
                            <mxPoint x="1160" y="670"/>
                            <mxPoint x="1580" y="670"/>
                        </Array>
                    </mxGeometry>
                </mxCell>
                <mxCell id="eNKYxBsOCk_GWGlPTTgq-175" value="Notificaciones" style="whiteSpace=wrap;html=1;" vertex="1" parent="eNKYxBsOCk_GWGlPTTgq-1">
                    <mxGeometry x="940" y="720" width="120" height="60" as="geometry"/>
                </mxCell>
                <mxCell id="tYjFH5yMxJcCEJEGDVks-0" value="Soporte" style="whiteSpace=wrap;html=1;" vertex="1" parent="eNKYxBsOCk_GWGlPTTgq-1">
                    <mxGeometry x="750" y="720" width="120" height="60" as="geometry"/>
                </mxCell>
            </root>
        </mxGraphModel>
    </diagram>
</mxfile>